<svg xmlns="http://www.w3.org/2000/svg" viewBox="0 0 1200 800" fill="none">
  <defs>
    <linearGradient id="bg" x1="0" y1="0" x2="1" y2="1">
      <stop offset="0" stop-color="#f5f7fb"/>
      <stop offset="1" stop-color="#e9edf5"/>
    </linearGradient>
    <linearGradient id="metal" x1="0" y1="0" x2="1" y2="0">
      <stop offset="0" stop-color="#d9dfe9"/>
      <stop offset="0.5" stop-color="#f7f9fd"/>
      <stop offset="1" stop-color="#c6cedc"/>
    </linearGradient>
    <linearGradient id="accent" x1="0" y1="0" x2="0" y2="1">
      <stop offset="0" stop-color="#0f192f"/>
      <stop offset="1" stop-color="#1f3053"/>
    </linearGradient>
  </defs>
  <rect width="1200" height="800" rx="32" fill="url(#bg)"/>
  <rect x="80" y="90" width="1040" height="620" rx="42" fill="#ffffff" stroke="#0f192f" stroke-opacity="0.08" stroke-width="7"/>
  <rect x="140" y="170" width="920" height="480" rx="34" fill="url(#metal)" stroke="#0f192f" stroke-opacity="0.08" stroke-width="5"/>
  <rect x="190" y="220" width="320" height="340" rx="18" fill="#eef1f7" stroke="#1b2943" stroke-opacity="0.1" stroke-width="3"/>
  <rect x="230" y="260" width="240" height="120" rx="16" fill="url(#accent)" opacity="0.9"/>
  <rect x="230" y="410" width="240" height="90" rx="16" fill="#152138" opacity="0.92"/>
  <rect x="230" y="520" width="240" height="60" rx="12" fill="#d6ddea"/>
  <rect x="560" y="230" width="420" height="80" rx="18" fill="#d7deeb"/>
  <rect x="560" y="330" width="420" height="80" rx="18" fill="#e6eaf3"/>
  <rect x="560" y="430" width="420" height="140" rx="22" fill="#c6cedc"/>
  <rect x="560" y="590" width="420" height="50" rx="14" fill="#e7ebf5"/>
  <rect x="660" y="470" width="240" height="32" rx="12" fill="#0f192f" opacity="0.85"/>
  <circle cx="950" cy="200" r="14" fill="#0f192f" opacity="0.65"/>
  <circle cx="990" cy="200" r="14" fill="#0f192f" opacity="0.35"/>
  <text x="200" y="200" fill="#0f192f" font-family="Sora,Arial,sans-serif" font-size="24" font-weight="700">Fusion-Style Rendering · VW T5 System</text>
  <text x="200" y="230" fill="#5a6172" font-family="Sora,Arial,sans-serif" font-size="16" font-weight="600">Modulare Möbel · Technik-Box · Dokumentation</text>
</svg>
