<svg xmlns="http://www.w3.org/2000/svg" viewBox="0 0 1200 900" fill="none">
  <defs>
    <linearGradient id="g4" x1="0" y1="0" x2="1" y2="1">
      <stop offset="0" stop-color="#0c1224"/>
      <stop offset="1" stop-color="#1c2f50"/>
    </linearGradient>
  </defs>
  <rect width="1200" height="900" fill="url(#g4)"/>
  <rect x="80" y="140" width="1040" height="620" rx="38" fill="#f6f7fb" stroke="#0c1224" stroke-opacity="0.08" stroke-width="7"/>
  <rect x="140" y="220" width="920" height="460" rx="30" fill="#ffffff" stroke="#0c1224" stroke-opacity="0.08" stroke-width="6"/>
  <rect x="180" y="260" width="280" height="360" rx="18" fill="#e4e9f6"/>
  <rect x="500" y="260" width="220" height="160" rx="16" fill="#d1dbf1"/>
  <rect x="750" y="260" width="240" height="160" rx="16" fill="#c8d5f2"/>
  <rect x="500" y="460" width="490" height="140" rx="18" fill="#dfe6f6"/>
  <rect x="220" y="300" width="200" height="120" rx="16" fill="#0c1224" fill-opacity="0.82"/>
  <rect x="220" y="460" width="200" height="80" rx="14" fill="#111b33" fill-opacity="0.9"/>
  <rect x="540" y="490" width="180" height="26" rx="10" fill="#0c1224" fill-opacity="0.85"/>
  <rect x="760" y="490" width="120" height="26" rx="10" fill="#0c1224" fill-opacity="0.65"/>
  <circle cx="920" cy="200" r="14" fill="#0c1224" fill-opacity="0.8"/>
  <circle cx="960" cy="200" r="14" fill="#0c1224" fill-opacity="0.5"/>
  <text x="200" y="200" fill="#0c1224" font-family="Sora,Arial,sans-serif" font-size="24" font-weight="700">Rendering · CamperVanOs</text>
  <text x="200" y="230" fill="#5a6172" font-family="Sora,Arial,sans-serif" font-size="16" font-weight="600">Visual Layouts · Module · Technik</text>
</svg>
