<svg xmlns="http://www.w3.org/2000/svg" viewBox="0 0 1200 800" fill="none">
  <defs>
    <linearGradient id="bg2" x1="0" y1="0" x2="1" y2="1">
      <stop offset="0" stop-color="#f6f8fc"/>
      <stop offset="1" stop-color="#e7ecf6"/>
    </linearGradient>
    <linearGradient id="metal2" x1="0" y1="0" x2="1" y2="0">
      <stop offset="0" stop-color="#d4dce9"/>
      <stop offset="0.5" stop-color="#f8fafe"/>
      <stop offset="1" stop-color="#c3ccda"/>
    </linearGradient>
    <linearGradient id="accent2" x1="0" y1="0" x2="0" y2="1">
      <stop offset="0" stop-color="#0f192f"/>
      <stop offset="1" stop-color="#1f2f50"/>
    </linearGradient>
  </defs>
  <rect width="1200" height="800" rx="30" fill="url(#bg2)"/>
  <rect x="90" y="110" width="1020" height="600" rx="38" fill="#ffffff" stroke="#0f192f" stroke-opacity="0.08" stroke-width="7"/>
  <rect x="150" y="190" width="900" height="460" rx="32" fill="url(#metal2)" stroke="#0f192f" stroke-opacity="0.08" stroke-width="5"/>
  <rect x="200" y="240" width="280" height="330" rx="18" fill="#eef1f7" stroke="#1b2943" stroke-opacity="0.08" stroke-width="3"/>
  <rect x="240" y="280" width="210" height="110" rx="16" fill="url(#accent2)" opacity="0.9"/>
  <rect x="240" y="420" width="210" height="80" rx="14" fill="#152138" opacity="0.92"/>
  <rect x="240" y="520" width="210" height="50" rx="12" fill="#d7deeb"/>
  <rect x="520" y="240" width="500" height="100" rx="20" fill="#d7deeb"/>
  <rect x="520" y="370" width="500" height="90" rx="18" fill="#e6eaf4"/>
  <rect x="520" y="480" width="500" height="120" rx="20" fill="#c5cddc"/>
  <rect x="560" y="520" width="200" height="34" rx="12" fill="#0f192f" opacity="0.82"/>
  <rect x="790" y="520" width="190" height="34" rx="12" fill="#0f192f" opacity="0.6"/>
  <circle cx="930" cy="180" r="14" fill="#0f192f" opacity="0.65"/>
  <circle cx="970" cy="180" r="14" fill="#0f192f" opacity="0.35"/>
  <text x="210" y="190" fill="#0f192f" font-family="Sora,Arial,sans-serif" font-size="24" font-weight="700">Fusion-Style Rendering · Modul-Layout</text>
  <text x="210" y="220" fill="#5a6172" font-family="Sora,Arial,sans-serif" font-size="16" font-weight="600">Schlafplattform · Küche · Technik</text>
</svg>
