<svg xmlns="http://www.w3.org/2000/svg" viewBox="0 0 1200 900" fill="none">
  <defs>
    <linearGradient id="g2" x1="0" y1="0" x2="1" y2="1">
      <stop offset="0" stop-color="#0c1224"/>
      <stop offset="1" stop-color="#223861"/>
    </linearGradient>
  </defs>
  <rect width="1200" height="900" fill="url(#g2)"/>
  <rect x="90" y="120" width="1020" height="660" rx="40" fill="#f7f8fc" stroke="#0c1224" stroke-opacity="0.08" stroke-width="7"/>
  <rect x="150" y="220" width="900" height="500" rx="32" fill="#ffffff" stroke="#0c1224" stroke-opacity="0.08" stroke-width="6"/>
  <rect x="190" y="260" width="280" height="360" rx="18" fill="#e7ebf6"/>
  <rect x="520" y="260" width="500" height="110" rx="18" fill="#d1dbf1"/>
  <rect x="520" y="400" width="500" height="80" rx="16" fill="#e4e9f8"/>
  <rect x="520" y="500" width="500" height="90" rx="16" fill="#c8d5f2"/>
  <rect x="520" y="610" width="500" height="70" rx="16" fill="#dfe6f6"/>
  <rect x="230" y="300" width="200" height="110" rx="14" fill="#0c1224" fill-opacity="0.8"/>
  <rect x="230" y="440" width="200" height="80" rx="14" fill="#111b33" fill-opacity="0.9"/>
  <rect x="230" y="540" width="200" height="60" rx="12" fill="#d1dbf1"/>
  <rect x="620" y="530" width="180" height="24" rx="10" fill="#0c1224" fill-opacity="0.85"/>
  <rect x="830" y="530" width="150" height="24" rx="10" fill="#0c1224" fill-opacity="0.65"/>
  <circle cx="910" cy="200" r="14" fill="#0c1224" fill-opacity="0.8"/>
  <circle cx="950" cy="200" r="14" fill="#0c1224" fill-opacity="0.5"/>
  <text x="190" y="200" fill="#0c1224" font-family="Sora,Arial,sans-serif" font-size="24" font-weight="700">Rendering · Modul-Layout</text>
  <text x="190" y="230" fill="#5a6172" font-family="Sora,Arial,sans-serif" font-size="16" font-weight="600">Schlafplattform · Küche · Technik</text>
</svg>
